<?xml version="1.0" standalone="no"?>
<!DOCTYPE svg PUBLIC "-//W3C//DTD SVG 20010904//EN"
 "http://www.w3.org/TR/2001/REC-SVG-20010904/DTD/svg10.dtd">
<svg version="1.0" xmlns="http://www.w3.org/2000/svg"
 width="280.000000pt" height="300.000000pt" viewBox="0 0 280.000000 300.000000"
 preserveAspectRatio="xMidYMid meet">

<g transform="translate(0.000000,300.000000) scale(0.100000,-0.100000)"
fill="#000000" stroke="none">
<path d="M426 2819 c-15 -28 -24 -54 -20 -59 5 -4 493 -247 1084 -540 l1075
-532 43 24 c24 14 43 29 42 34 -1 8 -2176 1124 -2190 1124 -3 0 -18 -23 -34
-51z"/>
<path d="M155 2450 c-15 -29 -23 -56 -18 -60 9 -9 2228 -821 2259 -828 25 -4
109 47 97 59 -7 7 -2255 865 -2295 876 -12 4 -24 -9 -43 -47z"/>
<path d="M1335 1580 c-208 -22 -358 -97 -385 -191 -6 -18 -10 -92 -10 -164 l0
-130 -143 -1 c-240 -2 -403 -53 -479 -150 -23 -28 -23 -34 -26 -337 -2 -241 0
-312 10 -325 20 -25 148 -80 250 -108 117 -32 310 -43 425 -24 125 20 319 95
345 134 4 6 8 89 8 185 l0 174 38 -7 c20 -3 74 -6 120 -6 l82 0 0 -163 c0
-115 4 -168 13 -180 19 -26 159 -86 266 -115 82 -21 118 -25 246 -26 126 -1
164 3 240 23 126 32 272 102 280 133 3 13 5 155 3 315 l-3 291 -31 39 c-72 89
-253 147 -466 148 l-128 0 0 138 c0 95 -4 148 -14 170 -55 129 -342 209 -641
177z m320 -125 c137 -24 222 -68 213 -111 -4 -23 -80 -60 -175 -85 -100 -27
-321 -30 -429 -6 -127 28 -212 74 -199 109 13 33 145 86 250 101 74 10 260 6
340 -8z m-47 -399 c2 -3 2 -12 -2 -21 -4 -12 -10 -14 -25 -5 -25 13 -58 13
-66 0 -10 -16 12 -37 44 -43 56 -11 80 -66 45 -101 -31 -31 -155 -11 -135 22
7 11 16 11 50 1 31 -9 45 -9 53 -1 16 16 -5 39 -43 47 -76 17 -79 102 -4 117
19 4 73 -6 83 -16z m-158 -1 c0 -10 -11 -15 -35 -15 l-35 0 0 -85 c0 -78 -2
-85 -20 -85 -18 0 -20 7 -20 85 l0 85 -30 0 c-20 0 -30 5 -30 15 0 12 16 15
85 15 69 0 85 -3 85 -15z m-395 -99 c123 -34 183 -78 154 -112 -55 -67 -290
-111 -495 -93 -165 14 -309 68 -302 112 6 41 98 84 226 107 77 14 349 5 417
-14z m1209 14 c135 -22 228 -65 234 -107 3 -17 -9 -27 -60 -52 -90 -44 -190
-63 -338 -63 -147 1 -263 21 -339 59 -75 38 -85 57 -46 89 32 26 120 58 200
73 68 12 277 13 349 1z m-1717 -405 c31 -22 38 -63 15 -94 -18 -25 -18 -27 0
-56 23 -38 23 -45 -1 -45 -11 0 -28 15 -40 35 -13 22 -28 35 -41 35 -16 0 -20
-6 -20 -35 0 -28 -4 -35 -20 -35 -19 0 -20 7 -20 105 l0 105 53 0 c30 0 62 -6
74 -15z m1263 -5 c28 -28 30 -72 4 -100 -11 -13 -10 -20 6 -45 25 -37 25 -45
1 -45 -11 0 -28 15 -41 35 -13 20 -30 35 -41 35 -15 0 -19 -7 -19 -35 0 -28
-4 -35 -20 -35 -19 0 -20 7 -20 105 l0 105 55 0 c42 0 60 -5 75 -20z m382 -82
c2 -57 2 -105 0 -108 -1 -2 -12 2 -24 9 -14 9 -23 10 -31 2 -20 -20 -64 -12
-86 15 -36 46 -23 106 26 125 19 7 32 6 49 -6 24 -15 24 -15 24 25 0 33 3 40
19 40 17 0 19 -10 23 -102z m-1032 67 c0 -16 6 -25 15 -25 8 0 15 -7 15 -15 0
-8 -7 -15 -15 -15 -11 0 -15 -11 -15 -39 0 -31 4 -40 21 -44 27 -7 20 -31 -10
-35 -35 -5 -51 15 -51 68 0 30 -5 50 -12 53 -10 3 -10 9 0 26 6 11 12 28 12
36 0 8 9 15 20 15 15 0 20 -7 20 -25z m-429 -42 c9 -8 19 -25 22 -39 4 -23 2
-24 -54 -24 -45 0 -59 -3 -59 -15 0 -20 46 -30 66 -15 12 10 17 11 27 1 9 -10
8 -15 -7 -27 -48 -35 -126 1 -126 60 0 74 76 108 131 59z m163 7 c11 -11 29
-131 21 -139 -3 -3 -15 0 -25 7 -15 9 -24 9 -38 1 -29 -18 -71 -3 -78 27 -9
34 15 57 61 58 26 1 35 5 32 16 -2 11 -14 14 -46 12 -31 -2 -42 1 -39 10 9 26
88 31 112 8z m164 4 c35 -24 27 -37 -19 -29 -45 8 -59 -2 -59 -42 0 -28 35
-49 55 -33 8 7 24 9 37 5 l22 -8 -23 -18 c-48 -39 -131 -7 -131 51 0 43 10 61
44 76 40 17 47 17 74 -2z m935 -16 c9 -11 17 -29 17 -39 0 -16 -8 -19 -56 -19
-47 0 -55 -3 -52 -17 4 -22 44 -29 64 -12 11 9 18 9 26 1 17 -17 -18 -41 -58
-42 -83 -1 -107 118 -29 151 28 12 67 2 88 -23z m267 -26 c0 -44 12 -72 31
-72 21 0 39 35 39 76 0 37 3 44 20 44 17 0 20 -7 20 -52 0 -29 3 -63 6 -75 5
-18 2 -23 -14 -23 -11 0 -22 5 -24 10 -2 7 -14 6 -34 -2 -57 -21 -84 10 -84
98 0 37 3 44 20 44 17 0 20 -7 20 -48z m189 26 l14 -22 17 22 c17 20 50 31 50
16 0 -3 -9 -19 -21 -35 l-21 -30 26 -39 c24 -37 25 -40 7 -40 -11 0 -28 12
-38 26 l-19 26 -17 -26 c-10 -14 -26 -26 -37 -26 -19 0 -19 2 6 40 l26 39 -21
30 c-26 35 -26 41 -3 41 9 0 23 -10 31 -22z"/>
<path d="M1397 1398 c-45 -12 -64 -40 -42 -62 40 -40 171 -43 217 -7 62 51
-60 99 -175 69z"/>
<path d="M758 911 c-77 -16 -92 -59 -28 -85 88 -35 224 -4 205 46 -13 32 -108
53 -177 39z"/>
<path d="M2041 909 c-83 -16 -93 -60 -20 -86 75 -26 189 -4 197 39 7 38 -92
65 -177 47z"/>
<path d="M460 510 c0 -27 3 -30 34 -30 21 0 36 6 40 15 10 28 -5 45 -40 45
-31 0 -34 -3 -34 -30z"/>
<path d="M1720 510 c0 -27 3 -30 34 -30 37 0 49 15 34 43 -5 10 -20 17 -38 17
-27 0 -30 -3 -30 -30z"/>
<path d="M2080 475 c-15 -18 -6 -61 16 -69 24 -9 54 12 54 37 0 43 -44 63 -70
32z"/>
<path d="M652 488 c-20 -20 -14 -28 23 -28 37 0 49 22 19 34 -22 8 -28 8 -42
-6z"/>
<path d="M812 423 c2 -12 12 -18 28 -18 16 0 26 6 28 18 3 13 -3 17 -28 17
-25 0 -31 -4 -28 -17z"/>
<path d="M1912 488 c-20 -20 -14 -28 23 -28 19 0 35 4 35 8 0 12 -22 32 -35
32 -6 0 -16 -5 -23 -12z"/>
</g>
</svg>
